<svg xmlns="http://www.w3.org/2000/svg" width="87.012" height="90.235" viewBox="0 0 87.012 90.235"><defs><style>.a{fill:#fff;}</style></defs><g transform="translate(-5 -4)"><path class="a" d="M92.012,36.834A4.834,4.834,0,0,0,87.178,32H9.834A4.834,4.834,0,0,0,5,36.834V69.061a8.066,8.066,0,0,0,8.057,8.057H17.7a4.834,4.834,0,0,0,4.689-3.666l3-12.016a4.813,4.813,0,0,1,4.689-3.655h.87a8.057,8.057,0,0,1,15.791,0h3.545a8.057,8.057,0,0,1,15.791,0h.872a4.815,4.815,0,0,1,4.691,3.658l3,12.017a4.834,4.834,0,0,0,4.687,3.661h4.641a8.066,8.066,0,0,0,8.057-8.057ZM21.113,56.17A9.668,9.668,0,1,1,30.781,46.5,9.668,9.668,0,0,1,21.113,56.17Zm25.781-14.5H40.449V38.445h6.445Zm9.668,0H50.118V38.445h6.445Zm11.279,9.668A4.834,4.834,0,1,1,72.676,46.5,4.834,4.834,0,0,1,67.842,51.336Zm12.891,0A4.834,4.834,0,1,1,85.567,46.5,4.834,4.834,0,0,1,80.733,51.336Z" transform="translate(0 17.118)"/><circle class="a" cx="5" cy="5" r="5" transform="translate(53.012 71.235)"/><circle class="a" cx="1.5" cy="1.5" r="1.5" transform="translate(79.012 62.235)"/><circle class="a" cx="5" cy="5" r="5" transform="translate(34.012 71.235)"/><circle class="a" cx="1.5" cy="1.5" r="1.5" transform="translate(66.012 62.235)"/><path class="a" d="M23.575,41.747a6.445,6.445,0,0,0-4.605-4.605v2.994H15.747V37.142a6.445,6.445,0,0,0-4.605,4.605h2.994V44.97H11.142a6.445,6.445,0,0,0,4.605,4.605V46.581H18.97v2.994a6.445,6.445,0,0,0,4.605-4.605H20.581V41.747Z" transform="translate(3.755 20.261)"/><path class="a" d="M22,26H54.227v6.445H22Z" transform="translate(10.393 13.449)"/><path class="a" d="M10,29h9.668v1.611H10Z" transform="translate(3.057 15.283)"/><path class="a" d="M18,4H59.895V36.227H18Z" transform="translate(7.947)"/><path class="a" d="M54.057,4H46V36.227h8.057a1.611,1.611,0,0,0,1.611-1.611v-29A1.611,1.611,0,0,0,54.057,4ZM52.445,24.947H49.223V15.279h3.223Z" transform="translate(25.065)"/><path class="a" d="M48,29h9.668v1.611H48Z" transform="translate(26.288 15.283)"/><path class="a" d="M12,5.611v29a1.611,1.611,0,0,0,1.611,1.611h4.834V4H13.611A1.611,1.611,0,0,0,12,5.611Z" transform="translate(4.279)"/></g></svg>