 <svg class="img-content" id="Layer_1" data-name="Layer 1" xmlns="http://www.w3.org/2000/svg" viewBox="0 0 283.46 283.46"><defs><style>.cls-20200{fill:#ef781c;}.cls-2020{fill:#fff;}</style></defs><title>Orange</title><rect class="cls-20200" x="65.22" y="69.06" width="159.98" height="158.52"/><path class="cls-2020" d="M124.62,191.65q-6.36,0-9.5,4.3l4,2.24a6.68,6.68,0,0,1,5.44-2.53c2.25,0,3.48.93,3.48,2.53v1.24c-9.45,1-14,3.66-14,8.57,0,3.69,2.43,6.42,6.6,6.42a13.06,13.06,0,0,0,7.36-2.2l.52,1.95h5.2s0-16,0-16C133.69,194.13,130.42,191.65,124.62,191.65Zm3.2,16.5a8.29,8.29,0,0,1-5.42,2.32,2.68,2.68,0,0,1-2.64-2.88c0-2.61,2.59-4,8.06-4.67Z"/><path class="cls-2020" d="M151.34,191.62c-2.73,0-4.93,1-7.65,3l-.52-2.62-4.87.66v21.43h5.81V198.32c2-1.65,3.73-2.44,5.48-2.44,2.11,0,2.82,1.21,2.82,3.93v14.32h5.88V198.78C158.29,194,155.92,191.62,151.34,191.62Z"/><path class="cls-2020" d="M197,191.62c-6.43,0-10.4,4.17-10.4,11.51s3.91,11.42,10.48,11.42c4.59,0,8-1.64,9.86-4.76l-4.28-2.36a5.66,5.66,0,0,1-5.05,2.82c-3.45,0-5.19-2.09-5.25-6.28h14.81c0-.37.07-.77.07-1.14C207.23,195.67,203.39,191.62,197,191.62Zm-4.55,8.61c.24-3,1.9-4.69,4.55-4.69s4.47,1.73,4.47,4.69Z"/><path class="cls-2020" d="M84.92,191.54c-5.82,0-11,3.64-11,11.64s5.21,11.61,11,11.61,11-3.65,11-11.61S90.7,191.54,84.92,191.54Zm0,18.35c-4.4,0-5.21-3.91-5.21-6.71s.81-6.76,5.21-6.76,5.16,3.92,5.16,6.76S89.28,209.89,84.92,209.89Z"/><path class="cls-2020" d="M105.5,194.72v-2.6H99.94v22h5.94V199.49c.92-2,3.68-2.35,6.23-2.35h.27V191.7a5.94,5.94,0,0,0-.73,0A8.67,8.67,0,0,0,105.5,194.72Z"/><path class="cls-2020" d="M177.65,194.58c-.43-1.07-2.1-3-6.41-3-4.73,0-9,4.14-9,11.5s4.1,11,9.26,11c3.43,0,4.83-1.56,5.77-3.2l.07.09v2.54c0,3.47-1.47,4.91-4.48,4.91-3.28,0-3.94-1.09-4.2-2.18l-5.78.93c.81,3.78,4.87,5.51,9.24,5.49,10.62-.07,10.89-6.11,10.89-9.81V192h-4.94Zm-5,14.85c-4.3,0-4.49-4.48-4.49-7.2,0-5,2.35-6.5,4.45-6.5,3.15,0,4.87,2.81,4.87,6.26C177.45,204.91,177.05,209.39,172.62,209.43Z"/><polygon class="cls-2020" points="217.25 183.75 215.1 189.28 212.9 183.75 211.03 183.75 211.03 191.04 212.23 191.04 212.23 184.95 212.25 184.95 214.67 191.04 215.44 191.04 217.87 184.95 217.9 184.95 217.9 191.04 219.13 191.04 219.13 183.75 217.25 183.75"/><polygon class="cls-2020" points="203.7 184.73 206 184.73 206 191.04 207.23 191.04 207.23 184.73 209.52 184.73 209.52 183.75 203.7 183.75 203.7 184.73"/></svg>